<?xml version="1.0" encoding="utf-8"?>
<!-- Generator: Adobe Illustrator 21.1.0, SVG Export Plug-In . SVG Version: 6.00 Build 0)  -->
<svg version="1.1" id="Capa_1" xmlns="http://www.w3.org/2000/svg" xmlns:xlink="http://www.w3.org/1999/xlink" x="0px" y="0px"
	 viewBox="0 0 190 29" style="enable-background:new 0 0 190 29;" xml:space="preserve">
<style type="text/css">
	.st0{fill:#59595B;}
	.st1{fill:#404042;}
	.st2{clip-path:url(#SVGID_2_);fill:url(#SVGID_3_);}
	.st3{clip-path:url(#SVGID_5_);fill:url(#SVGID_6_);}
	.st4{clip-path:url(#SVGID_8_);fill:url(#SVGID_9_);}
</style>
<path class="st0" d="M34.1,15.1V3.2h2.2v11.9c0,0.7-0.3,1.3-0.8,1.9c-0.5,0.5-1.1,0.8-1.9,0.8h-9.3c-0.7,0-1.3-0.3-1.9-0.8
	c-0.5-0.5-0.8-1.1-0.8-1.9V3.2h2.2v11.9c0,0.1,0,0.2,0.1,0.3c0.1,0.1,0.2,0.1,0.3,0.1h9.3c0.1,0,0.2,0,0.3-0.1
	C34.1,15.3,34.1,15.2,34.1,15.1"/>
<rect x="41.8" y="3.2" class="st0" width="2.2" height="14.5"/>
<path class="st0" d="M63.9,5.8v4.1c0,0.7-0.3,1.3-0.8,1.8c-0.5,0.5-1.1,0.8-1.9,0.8h-1.5l4.1,4.9v0.3h-2.6L57,12.5h-5
	c-0.1,0-0.3,0-0.4,0v5.2h-2.2V3.2h11.9c0.7,0,1.3,0.3,1.9,0.8C63.7,4.5,63.9,5.1,63.9,5.8 M52,10.3h9.3c0.1,0,0.2,0,0.3-0.1
	c0.1-0.1,0.1-0.2,0.1-0.3V5.8c0-0.1,0-0.2-0.1-0.3c-0.1-0.1-0.2-0.1-0.3-0.1H52c-0.1,0-0.2,0-0.3,0.1c-0.1,0.1-0.1,0.2-0.1,0.3v4.1
	c0,0.1,0,0.2,0.1,0.3C51.8,10.3,51.9,10.3,52,10.3"/>
<polygon class="st0" points="82.7,3.2 82.7,5.3 71.5,5.3 71.5,9.3 80.5,9.3 80.5,11.5 71.5,11.5 71.5,15.5 82.7,15.5 82.7,17.7 
	69.3,17.7 69.3,3.2 "/>
<polygon class="st0" points="141,3.2 141,5.3 129.9,5.3 129.9,9.3 138.9,9.3 138.9,11.5 129.9,11.5 129.9,15.5 141,15.5 141,17.7 
	127.7,17.7 127.7,3.2 "/>
<path class="st0" d="M101.7,10.1c-0.5-0.5-1.1-0.8-1.9-0.8h-9.3c-0.1,0-0.2,0-0.3-0.1c-0.1-0.1-0.1-0.2-0.1-0.3V5.8
	c0-0.1,0-0.2,0.1-0.3c0.1-0.1,0.2-0.1,0.3-0.1h6.3h1.1h1.9h2.1V3.2h-2.1h-1.9h-7.4c-0.7,0-1.3,0.3-1.9,0.8c-0.5,0.5-0.8,1.1-0.8,1.9
	v3.1c0,0.7,0.3,1.3,0.8,1.9c0.5,0.5,1.1,0.8,1.9,0.8h9.3c0.1,0,0.2,0,0.3,0.1c0.1,0.1,0.1,0.2,0.1,0.3v3.1c0,0.1,0,0.2-0.1,0.3
	c-0.1,0.1-0.2,0.1-0.3,0.1h-7.2h-0.2h-1.9h-2.1h0v2.2h2.2h1.9h7.4c0.7,0,1.3-0.3,1.9-0.8c0.5-0.5,0.8-1.1,0.8-1.9V12
	C102.4,11.2,102.2,10.6,101.7,10.1"/>
<path class="st0" d="M121.5,10.1c-0.5-0.5-1.1-0.8-1.9-0.8h-9.3c-0.1,0-0.2,0-0.3-0.1c-0.1-0.1-0.1-0.2-0.1-0.3V5.8
	c0-0.1,0-0.2,0.1-0.3c0.1-0.1,0.2-0.1,0.3-0.1h6.3h1.1h1.9h2.1V3.2h-2.1h-1.9h-7.4c-0.7,0-1.3,0.3-1.9,0.8c-0.5,0.5-0.8,1.1-0.8,1.9
	v3.1c0,0.7,0.3,1.3,0.8,1.9c0.5,0.5,1.1,0.8,1.9,0.8h9.3c0.1,0,0.2,0,0.3,0.1c0.1,0.1,0.1,0.2,0.1,0.3v3.1c0,0.1,0,0.2-0.1,0.3
	c-0.1,0.1-0.2,0.1-0.3,0.1h-7.2h-0.2h-1.9h-2.1h0v2.2h2.2h1.9h7.4c0.7,0,1.3-0.3,1.9-0.8c0.5-0.5,0.8-1.1,0.8-1.9V12
	C122.3,11.2,122,10.6,121.5,10.1"/>
<path class="st0" d="M10.7,11.9h3.4v3.1c0,0.1,0,0.2-0.1,0.3c-0.1,0.1-0.2,0.1-0.3,0.1H4.4c-0.1,0-0.2,0-0.3-0.1
	C4,15.3,4,15.2,4,15.1V5.8c0-0.1,0-0.2,0.1-0.3c0.1-0.1,0.2-0.1,0.3-0.1h8.5h0.8h2.2v-1c-0.1-0.1-0.2-0.3-0.3-0.4
	c-0.5-0.5-1.1-0.8-1.9-0.8H4.4c-0.7,0-1.3,0.3-1.9,0.8C2.1,4.4,1.8,5.1,1.8,5.8v9.3c0,0.7,0.3,1.3,0.8,1.9c0.5,0.5,1.1,0.8,1.9,0.8
	h9.3c0.7,0,1.4-0.3,1.9-0.8c0.5-0.5,0.8-1.1,0.8-1.9V9.7h-5.6V11.9z"/>
<rect x="10.9" y="3.2" class="st0" width="5" height="2.2"/>
<rect x="9.1" y="9.7" class="st0" width="5" height="2.2"/>
<path class="st1" d="M1.8,28.9v-6.9h1.8c0.5,0,1.2,0.1,1.6,0.5c0.4,0.4,0.6,0.9,0.6,1.5c0,0.8-0.2,1.5-1,1.9
	c-0.5,0.2-1.3,0.2-1.8,0.2H2.6v2.9H1.8z M2.6,25.2h0.7c1.1,0,1.7-0.2,1.7-1.3c0-1.1-0.7-1.3-1.6-1.3H2.6V25.2z"/>
<path class="st1" d="M9,21.8c2,0,2.3,1.9,2.3,3.4C11.2,27.2,11,29,9,29c-2,0-2.3-1.9-2.3-3.8C6.7,23.7,6.9,21.8,9,21.8 M8.9,22.5
	c-1.2,0-1.5,1.2-1.5,2.8c0,2,0.2,3.1,1.5,3.1c1.3,0,1.5-1.1,1.5-3.1C10.5,23.7,10.2,22.5,8.9,22.5"/>
<polygon class="st1" points="11.9,21.9 16.3,21.9 16.3,22.6 14.5,22.6 14.5,28.9 13.7,28.9 13.7,22.6 11.9,22.6 "/>
<polygon class="st1" points="17.1,28.9 17.1,21.9 20.5,21.9 20.5,22.6 17.8,22.6 17.8,24.9 20.4,24.9 20.4,25.6 17.8,25.6 
	17.8,28.2 20.5,28.2 20.5,28.9 "/>
<path class="st1" d="M25.2,21.9h0.8v6.9h-1.3l-1.9-5.5c-0.1-0.3-0.2-0.6-0.3-1h0c0,0.3,0,0.7,0,1.1v5.5h-0.8v-6.9H23l2,5.7
	c0.1,0.2,0.1,0.4,0.2,0.8h0c0-0.3,0-0.5,0-0.8V21.9z"/>
<path class="st1" d="M30.5,24c0-0.8-0.3-1.5-1.2-1.5c-1.3,0-1.3,1.9-1.3,2.8c0,0.9-0.1,3,1.3,3c0.9,0,1.1-0.7,1.2-1.5
	c0-0.2,0-0.3,0-0.5h0.8c0,0.1,0,0.3,0,0.4c0,0.6-0.1,1-0.4,1.5C30.5,28.7,30,29,29.3,29c-2.1,0-2.2-2.1-2.2-3.7
	c0-1.6,0.2-3.5,2.2-3.5c1.3,0,2,1,2,2.2H30.5z"/>
<rect x="32.7" y="21.9" class="st1" width="0.8" height="6.9"/>
<path class="st1" d="M36.4,21.9h1l1.9,6.9h-0.8l-0.5-2h-2.2l-0.5,2h-0.8L36.4,21.9z M36.9,22.5L36.9,22.5L36,26.2h1.8L36.9,22.5z"/>
<path class="st1" d="M41,28.9h-0.8v-6.9H42c1.5,0,2.4,0.4,2.3,2c0,0.8-0.5,1.4-1.3,1.5v0c0.9,0.1,1.1,0.4,1.2,1.3
	c0,0.5,0.1,1,0.1,1.5c0,0.1,0.1,0.4,0.3,0.4v0.2h-0.9c-0.2-0.4-0.2-1.3-0.2-1.8c0-0.7-0.3-1.3-1.2-1.3H41V28.9z M41,25.1h1.2
	c0.4,0,1.4-0.1,1.3-1.3c0-1.2-1-1.2-1.5-1.2H41V25.1z"/>
<polygon class="st1" points="48.1,28.9 48.1,21.9 51.5,21.9 51.5,22.6 48.8,22.6 48.8,24.9 51.4,24.9 51.4,25.6 48.8,25.6 
	48.8,28.2 51.6,28.2 51.6,28.9 "/>
<path class="st1" d="M57.1,21.9h1.3v6.9h-0.8v-5.7c0-0.3,0-0.6,0-0.9h0c-0.1,0.4-0.1,0.7-0.2,0.9L56,28.9h-0.9l-1.4-5.7
	c-0.1-0.2-0.1-0.5-0.2-0.8h0c0,0.3,0,0.6,0,0.9v5.7h-0.8v-6.9h1.4l1.3,5.4c0.1,0.3,0.1,0.6,0.2,1h0c0-0.4,0.1-0.7,0.2-1L57.1,21.9z"
	/>
<path class="st1" d="M60,28.9v-6.9h1.8c0.5,0,1.2,0.1,1.6,0.5c0.4,0.4,0.6,0.9,0.6,1.5c0,0.8-0.2,1.5-1,1.9
	c-0.5,0.2-1.3,0.2-1.8,0.2h-0.5v2.9H60z M60.7,25.2h0.7c1.1,0,1.7-0.2,1.7-1.3c0-1.1-0.7-1.3-1.6-1.3h-0.8V25.2z"/>
<path class="st1" d="M65.9,28.9h-0.8v-6.9h1.8c1.5,0,2.4,0.4,2.3,2c0,0.8-0.5,1.4-1.3,1.5v0c0.9,0.1,1.1,0.4,1.2,1.3
	c0,0.5,0.1,1,0.1,1.5c0,0.1,0.1,0.4,0.3,0.4v0.2h-0.9c-0.2-0.4-0.2-1.3-0.2-1.8c0-0.7-0.3-1.3-1.2-1.3h-1.3V28.9z M65.9,25.1h1.2
	c0.4,0,1.4-0.1,1.3-1.3c0-1.2-0.9-1.2-1.5-1.2h-1.1V25.1z"/>
<polygon class="st1" points="70.6,28.9 70.6,21.9 74.1,21.9 74.1,22.6 71.4,22.6 71.4,24.9 73.9,24.9 73.9,25.6 71.4,25.6 
	71.4,28.2 74.1,28.2 74.1,28.9 "/>
<path class="st1" d="M78.3,23.8c0.1-0.7-0.3-1.3-1.1-1.3c-1.1,0-1.2,0.7-1.2,1.2c0,0.5,0.2,0.8,0.7,0.9c0.4,0.1,0.7,0.3,1.1,0.4
	c1.3,0.5,1.5,1,1.5,1.9c0,1.3-0.8,2.1-2.1,2.1c-0.7,0-1.5-0.2-1.9-1.1C75,27.6,75,27,75,26.7h0.8c0,1,0.2,1.7,1.3,1.7
	c0.8,0,1.3-0.4,1.3-1.2c0-1.1-0.4-1.1-1.1-1.3c-0.4-0.1-1-0.3-1.4-0.5c-0.7-0.3-0.8-0.9-0.8-1.6c0-1.1,0.8-1.9,1.9-1.9
	c1.3,0,2,0.7,2,2H78.3z"/>
<path class="st1" d="M81.8,21.9h1l2,6.9h-0.9l-0.5-2h-2.2l-0.5,2h-0.8L81.8,21.9z M82.3,22.5L82.3,22.5l-0.9,3.7h1.8L82.3,22.5z"/>
<path class="st1" d="M88.5,23.8c0.1-0.7-0.3-1.3-1.1-1.3c-1.1,0-1.2,0.7-1.2,1.2c0,0.5,0.2,0.8,0.7,0.9c0.4,0.1,0.7,0.3,1.1,0.4
	c1.3,0.5,1.6,1,1.6,1.9c0,1.3-0.8,2.1-2.2,2.1c-0.7,0-1.5-0.2-1.9-1.1c-0.1-0.3-0.1-0.9-0.1-1.3h0.8c0,1,0.2,1.7,1.3,1.7
	c0.8,0,1.3-0.4,1.3-1.2c0-1.1-0.4-1.1-1.1-1.3c-0.4-0.1-1-0.3-1.4-0.5c-0.7-0.3-0.8-0.9-0.8-1.6c0-1.1,0.8-1.9,1.9-1.9
	c1.3,0,2,0.7,2,2H88.5z"/>
<polygon class="st1" points="94.8,25.4 96.4,21.9 97.3,21.9 95.2,26.2 95.2,28.9 94.4,28.9 94.4,26.2 92.4,21.9 93.2,21.9 "/>
<path class="st1" d="M100.5,28.9v-6.9h1.8c0.5,0,1.2,0.1,1.6,0.5c0.4,0.4,0.6,0.9,0.6,1.5c0,0.8-0.2,1.5-1,1.9
	c-0.5,0.2-1.3,0.2-1.8,0.2h-0.5v2.9H100.5z M101.3,25.2h0.7c1.1,0,1.7-0.2,1.7-1.3c0-1.1-0.7-1.3-1.6-1.3h-0.8V25.2z"/>
<polygon class="st1" points="105.5,28.9 105.5,21.9 109,21.9 109,22.6 106.3,22.6 106.3,24.9 108.8,24.9 108.8,25.6 106.3,25.6 
	106.3,28.2 109,28.2 109,28.9 "/>
<path class="st1" d="M111,28.9h-0.8v-6.9h1.8c1.4,0,2.4,0.4,2.3,2c0,0.8-0.5,1.4-1.3,1.5v0c0.9,0.1,1.1,0.4,1.2,1.3
	c0,0.5,0.1,1,0.1,1.5c0,0.1,0.1,0.4,0.3,0.4v0.2h-0.9c-0.2-0.4-0.2-1.3-0.2-1.8c0-0.7-0.3-1.3-1.2-1.3H111V28.9z M111,25.1h1.2
	c0.4,0,1.4-0.1,1.3-1.3c0-1.2-0.9-1.2-1.5-1.2H111V25.1z"/>
<path class="st1" d="M118.8,23.8c0.1-0.7-0.3-1.3-1.1-1.3c-1.1,0-1.2,0.7-1.2,1.2c0,0.5,0.2,0.8,0.7,0.9c0.4,0.1,0.7,0.3,1.1,0.4
	c1.3,0.5,1.5,1,1.5,1.9c0,1.3-0.8,2.1-2.1,2.1c-0.7,0-1.5-0.2-1.9-1.1c-0.2-0.3-0.1-0.9-0.2-1.3h0.8c0,1,0.2,1.7,1.3,1.7
	c0.8,0,1.3-0.4,1.3-1.2c0-1.1-0.4-1.1-1.1-1.3c-0.4-0.1-1-0.3-1.4-0.5c-0.7-0.3-0.8-0.9-0.8-1.6c0-1.1,0.8-1.9,1.9-1.9
	c1.3,0,2,0.7,2,2H118.8z"/>
<path class="st1" d="M123,21.8c2,0,2.3,1.9,2.3,3.4c0,1.9-0.3,3.8-2.3,3.8c-2,0-2.3-1.9-2.3-3.8C120.7,23.7,121,21.8,123,21.8
	 M123,22.5c-1.2,0-1.5,1.2-1.5,2.8c0,2,0.2,3.1,1.5,3.1c1.3,0,1.5-1.1,1.5-3.1C124.5,23.7,124.2,22.5,123,22.5"/>
<path class="st1" d="M130,21.9h0.8v6.9h-1.3l-1.9-5.5c-0.1-0.3-0.2-0.6-0.3-1h0c0,0.3,0,0.7,0,1.1v5.5h-0.8v-6.9h1.2l2,5.7
	c0.1,0.2,0.1,0.4,0.2,0.8h0c0-0.3,0-0.5,0-0.8V21.9z"/>
<path class="st1" d="M133.5,21.9h1l1.9,6.9h-0.8l-0.5-2h-2.2l-0.5,2h-0.9L133.5,21.9z M134,22.5L134,22.5l-0.9,3.7h1.8L134,22.5z"/>
<path class="st1" d="M140.3,23.8c0.1-0.7-0.3-1.3-1.1-1.3c-1.1,0-1.2,0.7-1.2,1.2c0,0.5,0.2,0.8,0.7,0.9c0.4,0.1,0.7,0.3,1.1,0.4
	c1.3,0.5,1.6,1,1.6,1.9c0,1.3-0.8,2.1-2.2,2.1c-0.7,0-1.5-0.2-1.9-1.1c-0.1-0.3-0.1-0.9-0.1-1.3h0.8c0,1,0.2,1.7,1.3,1.7
	c0.8,0,1.3-0.4,1.3-1.2c0-1.1-0.4-1.1-1.1-1.3c-0.4-0.1-1-0.3-1.4-0.5c-0.7-0.3-0.8-0.9-0.8-1.6c0-1.1,0.8-1.9,1.9-1.9
	c1.3,0,2,0.7,2,2H140.3z"/>
<g>
	<defs>
		<path id="SVGID_1_" d="M154.7,28.3L154.7,28.3L154.7,28.3L154.7,28.3C154.7,28.3,154.7,28.3,154.7,28.3L154.7,28.3L154.7,28.3z
			 M154.7,1.3L154.7,1.3C154.7,1.3,154.7,1.3,154.7,1.3L154.7,1.3z M154.7,1.3L154.7,1.3L154.7,1.3L154.7,1.3z M154.7,0.8
			c-4,0-7.1,6.5-7.1,13.8l0,0.2c0,0.1,0,0.1,0,0.2c0,7.2,3.1,13.8,7.1,13.8c0,0,0,0,0-0.1v-0.1L175,14.8h0l0,0l0,0h0L154.7,1
			L154.7,0.8L154.7,0.8z"/>
	</defs>
	<clipPath id="SVGID_2_">
		<use xlink:href="#SVGID_1_"  style="overflow:visible;"/>
	</clipPath>
	
		<linearGradient id="SVGID_3_" gradientUnits="userSpaceOnUse" x1="-139.5146" y1="409.7931" x2="-138.5146" y2="409.7931" gradientTransform="matrix(0 27.4314 27.4314 0 -11079.9023 3828.6401)">
		<stop  offset="0" style="stop-color:#B1B2B3"/>
		<stop  offset="0.2973" style="stop-color:#87888A"/>
		<stop  offset="0.5666" style="stop-color:#B9BAB9"/>
		<stop  offset="0.5917" style="stop-color:#B5B6B5"/>
		<stop  offset="1" style="stop-color:#707072"/>
	</linearGradient>
	<rect x="147.6" y="0.8" class="st2" width="27.4" height="28"/>
</g>
<g>
	<defs>
		<path id="SVGID_4_" d="M154.4,28.7c2.4,1,35.1-13.9,35.1-13.9l-14.3-0.1C175.2,14.7,151.2,27.4,154.4,28.7"/>
	</defs>
	<clipPath id="SVGID_5_">
		<use xlink:href="#SVGID_4_"  style="overflow:visible;"/>
	</clipPath>
	
		<linearGradient id="SVGID_6_" gradientUnits="userSpaceOnUse" x1="-132.4883" y1="420.3819" x2="-131.4883" y2="420.3819" gradientTransform="matrix(35.3661 0 0 -35.3661 4839.6934 14889.4951)">
		<stop  offset="0" style="stop-color:#707072"/>
		<stop  offset="1" style="stop-color:#707072"/>
	</linearGradient>
	<rect x="151.2" y="14.7" class="st3" width="38.3" height="15"/>
</g>
<g>
	<defs>
		<path id="SVGID_7_" d="M154.4,0.9C151.2,2.2,175,14.8,175,14.8h14.5c0,0-30.5-14-34.7-14C154.6,0.8,154.5,0.8,154.4,0.9"/>
	</defs>
	<clipPath id="SVGID_8_">
		<use xlink:href="#SVGID_7_"  style="overflow:visible;"/>
	</clipPath>
	
		<linearGradient id="SVGID_9_" gradientUnits="userSpaceOnUse" x1="-132.4873" y1="420.3779" x2="-131.4873" y2="420.3779" gradientTransform="matrix(35.3803 0 0 -35.3803 4841.5322 14880.8994)">
		<stop  offset="0" style="stop-color:#C8C8CB"/>
		<stop  offset="0.3591" style="stop-color:#C8C8CB"/>
		<stop  offset="1" style="stop-color:#999A99"/>
	</linearGradient>
	<rect x="151.2" y="0.8" class="st4" width="38.3" height="14"/>
</g>
</svg>
